<?xml version="1.0" standalone="no"?>
<!DOCTYPE svg PUBLIC "-//W3C//DTD SVG 20010904//EN"
 "http://www.w3.org/TR/2001/REC-SVG-20010904/DTD/svg10.dtd">
<svg version="1.0" xmlns="http://www.w3.org/2000/svg"
 width="1920.000000pt" height="998.000000pt" viewBox="0 0 1920.000000 998.000000"
 preserveAspectRatio="xMidYMid meet">
<metadata>
Created by potrace 1.16, written by Peter Selinger 2001-2019
</metadata>
<g transform="translate(0.000000,998.000000) scale(0.100000,-0.100000)"
fill="#000000" stroke="none">
<path d="M0 4990 l0 -4990 2383 0 c1867 0 2386 3 2395 12 10 10 17 10 32 0 16
-9 1552 -12 7205 -12 l7185 0 0 4990 0 4990 -9600 0 -9600 0 0 -4990z m9637
4929 c13 -13 60 -13 138 0 82 13 288 14 280 1 -3 -5 -35 -10 -71 -10 -60 0
-64 -1 -64 -23 0 -22 -1 -22 -67 -14 -48 7 -77 6 -98 -2 -21 -9 -26 -14 -16
-20 7 -5 13 -12 14 -17 1 -5 16 -7 32 -6 75 9 170 2 181 -13 6 -8 19 -15 28
-15 9 0 16 -8 16 -20 0 -11 -7 -20 -16 -20 -8 0 -13 -4 -10 -9 9 -14 -27 -18
-62 -6 l-33 11 25 14 c14 7 23 17 20 22 -3 4 -61 8 -130 8 -76 0 -124 4 -124
10 0 6 5 10 10 10 6 0 10 9 10 20 0 11 6 20 13 21 6 0 3 4 -8 8 -23 9 -75 -8
-93 -31 -6 -9 -26 -19 -43 -23 -19 -4 -29 -12 -25 -20 2 -7 -1 -21 -8 -30 -11
-15 -15 -15 -54 0 -49 20 -53 32 -14 37 l27 4 -30 13 c-16 8 -46 14 -65 15
-19 0 -39 4 -45 7 -5 4 -34 5 -62 4 -39 -2 -53 0 -53 10 0 19 34 28 81 20 50
-9 99 10 99 36 0 17 9 19 103 19 59 0 108 -5 114 -11z m-37 -384 c0 -6 -5 -16
-11 -22 -21 -21 2 -33 59 -33 63 0 62 -17 -2 -22 -22 -2 -41 -9 -44 -16 -2 -7
12 -28 32 -47 26 -24 33 -36 24 -42 -15 -8 -179 -6 -248 4 -43 7 -44 7 -15 14
17 4 55 7 85 8 30 1 62 6 70 11 19 12 20 12 -71 15 -77 2 -129 23 -129 51 0
25 23 27 42 5 13 -17 33 -25 78 -30 34 -4 63 -4 66 1 3 4 13 8 23 8 21 0 22
30 2 71 -10 21 -11 31 -1 50 12 22 13 22 26 4 8 -10 14 -24 14 -30z m-870
-1099 c41 -3 109 -8 150 -11 41 -4 126 -8 187 -11 122 -5 199 -22 108 -24
-210 -4 -337 -14 -361 -28 -10 -6 -27 -6 -38 -2 -12 5 -34 12 -51 15 -27 7
-28 8 -10 15 19 7 19 8 2 15 -10 4 -35 4 -55 0 -47 -9 -59 -9 -102 2 -21 6
-74 5 -132 0 -90 -9 -98 -9 -123 11 l-26 21 33 3 c47 4 329 0 418 -6z m-154
-234 c44 1 85 -1 90 -5 11 -6 183 7 227 18 34 9 63 -11 46 -31 -6 -8 -26 -14
-43 -14 -24 0 -27 -3 -16 -10 8 -5 25 -10 38 -10 12 0 22 -5 22 -10 0 -7 -56
-8 -172 -4 -159 7 -172 6 -160 -9 15 -18 8 -37 -13 -37 -20 0 -29 19 -16 34 9
10 7 15 -5 20 -10 4 -21 1 -25 -6 -6 -9 -13 -9 -33 0 -14 6 -26 16 -26 22 0 5
-10 10 -23 10 -13 0 -32 7 -43 15 -27 21 -2 36 40 24 17 -5 67 -9 112 -7z
m484 -625 c0 -9 19 -11 75 -9 55 3 75 1 75 -8 0 -8 9 -11 25 -8 27 6 43 -8 29
-22 -5 -5 -155 -12 -334 -15 -383 -6 -496 -12 -520 -27 -25 -16 -52 -3 -48 23
2 18 10 22 48 24 65 3 122 16 147 33 13 8 30 11 40 7 16 -6 15 -8 -6 -16 -47
-18 -5 -26 98 -19 63 5 106 12 111 20 5 9 9 9 14 1 11 -17 26 -13 26 7 0 15 3
14 18 -4 13 -17 25 -21 52 -17 19 2 52 4 72 3 27 0 40 5 48 20 12 22 30 27 30
7z m-2475 -190 c0 -7 -84 -13 -278 -19 -32 -1 -60 -5 -63 -9 -3 -5 -71 -8
-152 -8 -162 1 -411 -9 -455 -18 -15 -3 -33 -1 -40 5 -7 6 -37 11 -67 11 -30
0 -68 5 -85 10 -24 8 -12 10 60 10 50 0 144 3 210 6 66 3 221 6 345 6 124 0
263 4 310 9 104 9 215 8 215 -3z m4108 -376 c55 -10 191 -21 317 -25 41 -2
113 -12 160 -24 47 -12 103 -21 125 -22 37 -1 39 -2 20 -15 -15 -12 -36 -14
-96 -9 -104 9 -164 -17 -128 -53 7 -7 9 -19 5 -29 -6 -15 -8 -15 -27 2 -12 11
-29 35 -38 54 -9 19 -22 35 -29 34 -6 -1 -30 -2 -52 -2 -26 -1 -40 -6 -39 -14
5 -39 -2 -58 -21 -58 -11 0 -20 6 -20 14 0 25 -16 27 -65 10 -52 -17 -95 -12
-95 12 0 11 -6 13 -20 9 -12 -4 -31 0 -44 9 -16 10 -61 17 -137 21 -105 6
-154 18 -118 29 56 17 113 24 164 20 50 -4 56 -3 38 7 -25 13 -29 24 -13 34 6
3 10 21 10 39 0 49 13 52 33 8 16 -37 21 -41 70 -51z m-22 -817 c8 -8 23 -14
31 -14 9 0 35 -9 59 -20 24 -11 60 -20 80 -20 26 0 38 -5 41 -17 4 -17 -6 -18
-131 -16 -75 1 -169 4 -209 6 -69 4 -108 -8 -63 -20 25 -6 18 -23 -10 -23 -10
0 -19 -3 -20 -7 0 -5 -2 -18 -3 -30 -1 -12 1 -20 5 -18 4 3 12 -2 19 -9 9 -12
7 -17 -10 -26 -25 -13 -31 -2 -27 53 3 39 -13 64 -33 52 -6 -4 -16 -2 -23 3
-22 17 -99 21 -128 6 -21 -10 -35 -11 -54 -4 -15 6 -30 8 -33 6 -4 -2 -30 -7
-59 -10 -29 -3 -87 -16 -130 -28 -43 -12 -97 -23 -120 -24 -23 -2 -52 -8 -63
-14 -12 -6 -24 -9 -27 -7 -2 3 -23 -3 -46 -13 -23 -10 -67 -21 -97 -25 -30 -4
-82 -14 -115 -22 -33 -8 -73 -17 -90 -20 -16 -3 -37 -11 -45 -18 -41 -33 -73
-27 -96 16 -13 26 -13 30 1 35 8 4 32 3 53 0 20 -4 44 -6 52 -7 26 0 133 19
205 36 39 9 102 23 140 31 39 8 104 23 145 34 41 11 93 22 115 26 66 9 178 46
203 65 19 14 28 16 54 7 30 -11 49 -8 278 34 30 5 62 14 70 19 19 10 60 2 81
-17z m-3163 -291 c9 -21 22 -42 27 -46 6 -5 0 -6 -12 -2 -12 3 -24 1 -28 -4
-8 -14 31 -51 55 -51 11 0 20 -5 20 -11 0 -5 5 -7 11 -4 6 4 8 13 5 21 -3 8
-1 14 4 14 6 0 10 -7 10 -15 0 -8 3 -14 8 -13 4 1 21 -6 39 -15 17 -9 38 -15
45 -12 23 8 40 -11 36 -41 -3 -26 -8 -30 -43 -34 -22 -3 -59 -14 -82 -24 -32
-14 -43 -24 -45 -44 -2 -21 -9 -28 -31 -30 -16 -2 -39 4 -52 12 -13 9 -44 16
-68 16 -27 0 -49 6 -57 15 -7 8 -27 15 -44 15 -17 0 -67 7 -111 15 -44 8 -135
20 -203 27 -76 7 -119 15 -113 21 6 6 39 6 88 -1 248 -35 382 -41 390 -17 8
25 -142 43 -361 45 -43 0 -66 4 -60 9 5 6 93 7 219 2 199 -7 211 -6 232 12 12
11 28 36 34 56 6 20 16 41 21 48 5 6 8 20 6 30 -1 10 1 24 5 31 15 23 37 12
55 -25z m-768 -139 c2 -3 -2 -9 -10 -14 -11 -7 -8 -10 13 -10 16 0 26 4 22 10
-3 6 3 10 14 10 12 0 21 -4 21 -10 0 -5 9 -10 20 -10 11 0 20 -7 20 -15 0 -12
-10 -14 -57 -9 -32 3 -74 11 -93 17 -19 6 -114 11 -212 11 -97 1 -174 3 -171
6 20 21 103 28 258 23 94 -2 172 -7 175 -9z m-1235 -153 c28 -5 40 -9 28 -10
-56 -3 -74 -36 -25 -47 15 -4 44 -15 64 -25 21 -11 46 -19 56 -19 11 0 26 -7
33 -16 12 -15 6 -16 -71 -9 -84 7 -429 9 -504 3 -77 -6 -45 18 51 39 225 50
226 50 247 78 15 22 24 25 45 20 14 -4 49 -10 76 -14z m3350 -803 c-15 -56
-30 -118 -33 -137 -4 -30 -3 -33 17 -26 24 7 28 -7 7 -25 -8 -6 -13 -17 -10
-24 7 -17 -36 -29 -73 -20 -55 12 -60 16 -29 29 29 12 56 65 56 113 0 12 5 22
11 22 6 0 9 10 8 23 -2 12 2 32 9 44 7 12 12 31 12 42 0 12 5 21 10 21 6 0 15
12 21 26 5 15 12 24 15 21 3 -3 -7 -52 -21 -109z m-6945 -93 c14 -1 49 -3 78
-3 70 -2 67 -26 -4 -30 -27 -1 -62 -9 -79 -17 -16 -8 -82 -30 -146 -50 -73
-22 -119 -41 -123 -51 -5 -13 -15 -14 -49 -9 -23 4 -46 9 -50 12 -14 8 41 43
68 43 31 0 223 47 247 60 10 6 25 10 33 10 24 0 17 15 -7 16 -128 5 -268 19
-268 26 0 9 109 6 300 -7z m4971 -175 c26 0 3 -20 -40 -35 -110 -36 -301 -128
-301 -145 0 -6 -6 -10 -14 -10 -21 0 -122 -49 -136 -65 -16 -19 -34 -19 -49
-1 -10 12 -8 17 7 25 24 13 66 77 58 89 -10 17 12 32 55 36 24 3 53 7 64 10
89 23 139 38 155 46 10 6 29 10 42 11 13 0 46 11 73 24 28 13 56 21 63 19 8
-2 18 -4 23 -4z m2376 -784 c4 -5 -4 -6 -20 -2 -22 5 -28 4 -24 -6 2 -7 11
-12 20 -10 11 2 15 -2 11 -13 -3 -8 -11 -15 -18 -15 -6 0 -17 -9 -23 -20 -7
-11 -27 -27 -44 -35 -29 -15 -32 -15 -51 2 -11 10 -28 17 -38 15 -12 -2 -19 6
-24 29 -7 36 -1 48 16 31 8 -8 18 -6 37 11 21 17 39 22 88 22 34 0 65 -4 70
-9z m-277 -705 c0 -10 7 -24 15 -31 34 -28 12 -95 -34 -105 -37 -8 -67 10 -81
49 -15 45 -13 50 30 69 23 9 43 24 46 32 8 19 24 9 24 -14z m5016 -2669 c5 -4
18 -18 27 -31 14 -22 14 -27 1 -53 -18 -35 -55 -51 -88 -38 -69 26 -55 130 17
130 18 0 37 -4 43 -8z m-11706 -42 c30 -41 23 -79 -17 -103 -31 -17 -34 -17
-68 -1 -60 28 -62 106 -2 123 52 15 65 13 87 -19z m13849 -64 c47 -25 56 -42
37 -71 -42 -64 -98 -65 -136 -3 -11 18 -20 36 -20 40 0 9 63 48 78 48 7 0 25
-6 41 -14z"/>
</g>
</svg>
