<!DOCTYPE svg PUBLIC "-//W3C//DTD SVG 1.1//EN" "http://www.w3.org/Graphics/SVG/1.1/DTD/svg11.dtd">
<!-- Uploaded to: SVG Repo, www.svgrepo.com, Transformed by: SVG Repo Mixer Tools -->
<svg fill="#fe3974" version="1.1" id="Layer_1" xmlns="http://www.w3.org/2000/svg" xmlns:xlink="http://www.w3.org/1999/xlink" viewBox="-47.26 -47.26 567.13 567.13" xml:space="preserve" width="186px" height="186px" stroke="#fe3974" stroke-width="0.00472615" transform="matrix(1, 0, 0, 1, 0, 0)">
<g id="SVGRepo_bgCarrier" stroke-width="0"/>
<g id="SVGRepo_tracerCarrier" stroke-linecap="round" stroke-linejoin="round" stroke="#CCCCCC" stroke-width="6.616610000000001"/>
<g id="SVGRepo_iconCarrier"> <g> <g> <polygon points="472.615,403.692 472.615,344.583 0,344.583 0,403.692 147.692,403.692 147.692,452.923 108.308,452.923 108.308,472.615 364.308,472.615 364.308,452.923 324.923,452.923 324.923,403.692 "/> </g> </g> <g> <g> <polygon points="157.091,164.574 143.068,212.304 135.418,188.025 116.64,188.025 108.995,212.304 94.966,164.574 76.072,170.131 99.221,248.9 118.057,249.083 126.029,223.766 134.005,249.083 152.841,248.9 175.985,170.131 "/> </g> </g> <g> <g> <rect x="374.154" y="68.894" width="19.692" height="19.692"/> </g> </g> <g> <g> <polygon points="267.37,164.574 253.342,212.304 245.697,188.025 226.918,188.025 219.274,212.304 205.245,164.574 186.351,170.131 209.5,248.9 228.336,249.083 236.308,223.766 244.279,249.083 263.116,248.9 286.264,170.131 "/> </g> </g> <g> <g> <polygon points="377.649,164.574 363.62,212.304 355.976,188.025 337.197,188.025 329.548,212.304 315.524,164.574 296.63,170.131 319.775,248.9 338.61,249.083 346.587,223.766 354.558,249.083 373.395,248.9 396.543,170.131 "/> </g> </g> <g> <g> <rect x="334.769" y="68.894" width="19.692" height="19.692"/> </g> </g> <g> <g> <rect x="98.462" y="68.894" width="187.077" height="19.692"/> </g> </g> <g> <g> <path d="M0,0v324.891h472.615V0H0z M413.538,275.66H59.077V127.968h354.462V275.66z M413.538,108.275H59.077V49.198h354.462 V108.275z"/> </g> </g> </g>
</svg>